<svg width="24" height="24" viewBox="0 0 24 24" fill="none" xmlns="http://www.w3.org/2000/svg">
<path d="M16.0015 11.9998H10.7493M16.0015 15.5013H10.7493M16.0015 8.49838H10.7493M7.99609 21.0036H16.0036C18.765 21.0036 21.0036 18.765 21.0036 16.0036V7.99609C21.0036 5.23467 18.765 2.99609 16.0036 2.99609H7.99609C5.23467 2.99609 2.99609 5.23467 2.99609 7.99609V16.0036C2.99609 18.765 5.23467 21.0036 7.99609 21.0036ZM7.99818 11.8768C7.92967 11.8773 7.87458 11.9333 7.87513 12.0018C7.87569 12.0704 7.93167 12.1254 8.00018 12.1249C8.06869 12.1243 8.12378 12.0684 8.12323 11.9998C8.12012 11.9324 8.06562 11.8788 7.99818 11.8768ZM7.99818 15.3783C7.93021 15.3799 7.87623 15.4359 7.87714 15.5039C7.87805 15.5719 7.93351 15.6265 8.00149 15.6263C8.06948 15.6261 8.12466 15.5713 8.12523 15.5033C8.1231 15.4344 8.06714 15.3793 7.99818 15.3783ZM7.99818 8.37533C7.93021 8.37698 7.87623 8.43303 7.87714 8.50101C7.87805 8.56899 7.93351 8.62357 8.00149 8.6234C8.06948 8.62323 8.12466 8.56837 8.12523 8.50039C8.1231 8.43145 8.06714 8.37637 7.99818 8.37533Z" stroke="white" stroke-width="1.5" stroke-linecap="round" stroke-linejoin="round"/>
<path d="M7.99823 11.8771C7.92972 11.8777 7.87463 11.9337 7.87518 12.0022C7.87574 12.0707 7.93172 12.1258 8.00023 12.1252C8.06874 12.1247 8.12383 12.0687 8.12328 12.0002C8.12017 11.9328 8.06567 11.8792 7.99823 11.8771" stroke="white" stroke-width="1.5" stroke-linecap="round" stroke-linejoin="round"/>
<path d="M7.99818 15.3786C7.93022 15.3803 7.87624 15.4363 7.87715 15.5043C7.87806 15.5723 7.93351 15.6269 8.0015 15.6267C8.06948 15.6265 8.12467 15.5717 8.12523 15.5037C8.1231 15.4347 8.06714 15.3797 7.99818 15.3786" stroke="white" stroke-width="1.5" stroke-linecap="round" stroke-linejoin="round"/>
<path d="M7.99818 8.37569C7.93022 8.37733 7.87624 8.43338 7.87715 8.50136C7.87806 8.56934 7.93351 8.62392 8.0015 8.62375C8.06948 8.62358 8.12467 8.56872 8.12523 8.50074C8.1231 8.4318 8.06714 8.37672 7.99818 8.37569" stroke="white" stroke-width="1.5" stroke-linecap="round" stroke-linejoin="round"/>
</svg>
